<svg width="200" height="200" viewBox="0 0 200 200" fill="none" xmlns="http://www.w3.org/2000/svg">
<path d="M189 100C189 149.153 149.153 189 100 189C50.8466 189 11 149.153 11 100C11 50.8467 50.8466 11.0001 100 11.0001C149.153 11.0001 189 50.8467 189 100Z" fill="white"/>
<path d="M196.975 124.181C183.625 177.8 129.356 210.35 75.8187 197.006C22.2687 183.756 -10.35 129.356 3.02499 75.8751C16.3437 22.2688 70.6437 -10.3499 124.15 2.99383C177.731 16.3751 210.35 70.6126 196.975 124.219V124.181ZM144.075 85.7438C146.056 72.4938 135.931 65.3376 122.069 60.5188L126.569 42.5751L115.594 39.8063L111.237 57.3876C108.369 56.6376 105.381 55.9876 102.381 55.3063L106.75 37.5626L95.7437 34.8313L91.25 52.8626L84.25 51.2063L69.15 47.4251L66.2187 59.1813C66.2187 59.1813 74.3625 61.0313 74.1625 61.1313C78.6312 62.2751 79.4375 65.1626 79.3125 67.5126L67.0062 116.856C66.3875 118.231 64.9875 120.25 61.9 119.463C62 119.619 53.8937 117.481 53.8937 117.481L48.3937 130.038L62.65 133.588L70.3937 135.606L65.8687 153.875L76.875 156.575L81.4 138.506C84.3937 139.356 87.2562 140.1 90.1187 140.788L85.8937 158.719L96.8937 161.488L101.419 143.231C120.1 146.775 134.169 145.375 140.094 128.45C144.844 114.806 139.825 106.969 129.969 101.825C137.062 100.194 142.469 95.4751 143.962 85.7438H144.075ZM118.975 120.931C115.625 134.6 92.675 127.181 85.225 125.325L91.2437 101.175C98.7 103.094 122.525 106.769 118.975 120.931ZM122.4 85.5813C119.3 98.0126 100.225 91.7313 94.0062 90.1626L99.4812 68.1626C105.662 69.6563 125.612 72.5188 122.4 85.5438V85.5813Z" fill="url(#paint0_linear_492_11661)"/>
<defs>
<linearGradient id="paint0_linear_492_11661" x1="-38.5" y1="-35" x2="206" y2="192" gradientUnits="userSpaceOnUse">
<stop offset="0.0522377" stop-color="#5A5BEF"/>
<stop offset="0.505208" stop-color="#9F4BF4"/>
<stop offset="1" stop-color="#E74090"/>
</linearGradient>
</defs>
</svg>
